{"title":"Route Irish 2010 XViD BRRip - DTRG - SAFCuk009","uid":6424983,"size":1656183660,"categoryP":"video","categoryS":"movies","magnet":"?xt=urn:btih:c138afa67bc705af0b0681ddc488d50bbeea476c&amp;dn=Route+Irish+2010+XViD+BRRip+-+DTRG+-+SAFCuk009&amp;tr=udp%3A%2F%2Ftracker.openbittorrent.com%3A80&amp;tr=udp%3A%2F%2Fopen.demonii.com%3A1337&amp;tr=udp%3A%2F%2Ftracker.coppersurfer.tk%3A6969&amp;tr=udp%3A%2F%2Fexodus.desync.com%3A6969","seeders":1,"leechers":0,"uploader":"SAFCukO09","files":3,"time":1306434345,"description":"Format : AVI\nFormat/Info : Audio Video Interleave\nFile size : 1.54 GiB\nDuration : 1h 47mn\nOverall bit rate : 2 052 Kbps\nWriting library : VirtualDub build 32839/release\n\nVideo\nID : 0\nFormat : MPEG-4 Visual\nFormat profile : Advanced Simple@L5\nFormat settings, BVOP : 2\nFormat settings, QPel : No\nFormat settings, GMC : No warppoints\nFormat settings, Matrix : Default (H.263)\nMuxing mode : Packed bitstream\nCodec ID : XVID\nCodec ID/Hint : XviD\nDuration : 1h 47mn\nBit rate : 1 595 Kbps\nWidth : 720 pixels\nHeight : 384 pixels\nDisplay aspect ratio : 1.875\nFrame rate : 24.000 fps\nColor space : YUV\nChroma subsampling : 4:2:0\nBit depth : 8 bits\nScan type : Progressive\nCompression mode : Lossy\nBits/(Pixel*Frame) : 0.240\nStream size : 1.20 GiB (78%)\nWriting library : XviD 63\n\nAudio\nID : 1\nFormat : AC-3\nFormat/Info : Audio Coding 3\nMode extension : CM (complete main)\nCodec ID : 2000\nDuration : 1h 47mn\nBit rate mode : Constant\nBit rate : 448 Kbps\nChannel(s) : 6 channels\nChannel positions : Front: L C R, Side: L R, LFE\nSampling rate : 48.0 KHz\nBit depth : 16 bits\nCompression mode : Lossy\nStream size : 345 MiB (22%)\nAlignment : Aligned on interleaves\nInterleave, duration : 42 ms (1.00 video frame)\nInterleave, preload duration : 512 ms\n\n\n\n &lt;a href=&quot;\nhttp://www.imdb.com/title/tt1528312/&quot; rel=&quot;nofollow&quot; target=&quot;_NEW&quot;&gt;\nhttp://www.imdb.com/title/tt1528312/&lt;/a&gt;\n\n\n\n\n\n\n\n\nUsers: 6.9/10 (267 votes) 7 reviews | Critics: 47 reviews\n\nThe story of a private security contractor in Iraq who rejected the official explanation of his friend's death and sets out to discover the truth.\nDirector:\nKen Loach\nWriter:\nPaul Laverty (screenplay)\nStars:\nMark Womack, Andrea Lowe and John Bishop\n\n\nThis anti-war film, if I may classify it in that way, presents a perspective that is very different from any existing anti-war films produced by Hollywood. It shows that: no heroes in this film; no sound solution to resolve the injustice in the system; the expert fighter trained and produced by the war system can fight back, but resulted in double/triple tragedy. The investigation of Frankie's death did not start by an American Senator; instead, it was doubted by the death's best friend, a lad who's also been a soldier. The protagonist had / tried to have sex with the death's wife, but it wasn't straightforward (because he was trained to be a fighter). Apart from one conclusion, the film blurs the line of justice and injustice in the war system. That unquestionable conclusion is that: the war on Iraq is inhumane and contractors are unnecessary evils.\n\n\n\n\n\n\n\n\n\n\n\n\n\n\n\nSource Used\n\n\nRoute.Irish.2010.720p.BluRay.X264-7SinS ...... Thanks\n\n\nGreetz to IMAGiNE,Flawl3ss,DiLLoN,BDK,NOiR,TOXiCiNK,THC,Ez,Rx,Boobyblue,TaRiQ786,LKRG,CrEwSaDe","torrent":{"xt":"urn:btih:c138afa67bc705af0b0681ddc488d50bbeea476c","amp;dn":"Route+Irish+2010+XViD+BRRip+-+DTRG+-+SAFCuk009","amp;tr":["udp%3A%2F%2Ftracker.openbittorrent.com%3A80","udp%3A%2F%2Fopen.demonii.com%3A1337","udp%3A%2F%2Ftracker.coppersurfer.tk%3A6969","udp%3A%2F%2Fexodus.desync.com%3A6969"],"infoHash":"c138afa67bc705af0b0681ddc488d50bbeea476c","infoHashBuffer":{"type":"Buffer","data":[193,56,175,166,123,199,5,175,11,6,129,221,196,136,213,11,190,234,71,108]},"announce":[],"urlList":[]}}